<svg version="1.1"
     xmlns="http://www.w3.org/2000/svg"
     x="0px" y="0px" width="83px" height="86.7px" viewBox="0 0 83 86.7" style="enable-background:new 0 0 83 86.7;"
     xml:space="preserve">
<g>
    <path d="M80.6,86.2c-0.5,0-0.9-0.2-1.2-0.5L54.5,60.8l-0.3,0.3c-5.8,4.3-12.8,6.6-20,6.6c-9.1,0-17.6-3.6-23.9-10
        c-6.3-6.4-9.7-14.9-9.7-23.8c0.1-9,3.6-17.4,10-23.7c6.3-6.2,14.7-9.7,23.6-9.7c9.1,0,17.6,3.6,23.9,10c6.3,6.4,9.7,14.9,9.7,23.8
        s-3.6,17.4-10,23.7l-0.4,0.4L81.9,83l0.1,0.1c0.7,0.7,0.7,1.8,0,2.5C81.7,86,81.2,86.2,80.6,86.2L80.6,86.2z M34.1,3.3
        C17.2,3.3,3.5,17.1,3.5,34c0,16.9,13.8,30.7,30.7,30.7C51,64.7,64.8,50.9,64.8,34C64.8,17.1,51,3.3,34.1,3.3z"/>
    <path d="M34.1,1c8.9,0,17.3,3.5,23.6,9.9c12.8,13,12.7,34-0.3,46.8l-0.7,0.7l0.7,0.7l24.2,24.2l0.1,0.1
        c0.5,0.5,0.5,1.3,0,1.8c-0.3,0.3-0.6,0.4-1,0.4c-0.3,0-0.7-0.1-0.9-0.3L55.2,60.8l-0.6-0.6l-0.7,0.5c-5.8,4.3-12.6,6.5-19.7,6.5
        c-8.9,0-17.3-3.5-23.6-9.9c-12.8-13-12.7-34,0.3-46.8C17.1,4.4,25.3,1,34.1,1 M34.1,65.2c17.2,0,31.2-14,31.2-31.2
        S51.3,2.8,34.1,2.8S3,16.8,3,34S16.9,65.2,34.1,65.2 M34.1,0c-8.6,0-17.3,3.3-23.9,9.8C-3.2,23-3.4,44.6,9.8,58
        c6.6,6.7,15.4,10.2,24.3,10.2c7.1,0,14.3-2.2,20.3-6.7l24.6,24.6c0.5,0.4,1,0.6,1.6,0.6c0.6,0,1.3-0.3,1.7-0.8
        c0.8-0.9,0.8-2.3,0-3.2v0L58,58.4c13.4-13.2,13.6-34.8,0.4-48.2C51.7,3.4,42.9,0,34.1,0L34.1,0z M34.1,64.2C17.5,64.2,4,50.7,4,34
        S17.5,3.8,34.1,3.8S64.3,17.3,64.3,34S50.8,64.2,34.1,64.2L34.1,64.2z"/>
</g>
</svg>
